<?xml version="1.0" encoding="iso-8859-1"?>
<!-- Generator: Adobe Illustrator 19.0.0, SVG Export Plug-In . SVG Version: 6.00 Build 0)  -->
<svg version="1.1" id="Capa_1" xmlns="http://www.w3.org/2000/svg" xmlns:xlink="http://www.w3.org/1999/xlink" x="0px" y="0px"
	 viewBox="0 0 511.997 511.997" style="enable-background:new 0 0 511.997 511.997;" xml:space="preserve">
<g>
	<circle style="fill:#7D6599;" cx="282.48" cy="229.518" r="229.517"/>
	<g>
		<path style="fill:#3D324C;" d="M282.48,79.449c-4.875,0-8.828,3.952-8.828,8.828v97.103c0,4.875,3.952,8.828,8.828,8.828
			s8.828-3.952,8.828-8.828V88.276C291.307,83.401,287.355,79.449,282.48,79.449z"/>
		<path style="fill:#3D324C;" d="M363.755,298.311l-43.785-43.785c-3.464-3.345-8.97-3.298-12.375,0.108
			c-3.405,3.405-3.453,8.911-0.108,12.375l43.785,43.785c3.464,3.345,8.97,3.298,12.375-0.108
			C367.053,307.28,367.101,301.775,363.755,298.311z"/>
	</g>
	<path style="fill:#F0C419;" d="M89.42,235.988l20.303,30.42c4.043,6.061,2.722,14.214-3.028,18.688l-24.973,19.421
		c-5.416,4.171-6.973,11.673-3.663,17.655c7.336,13.162,14.257,28.725,48.666,63.126s49.964,41.331,63.126,48.666
		c5.982,3.309,13.484,1.753,17.655-3.663l19.421-24.973c4.474-5.749,12.627-7.071,18.688-3.028l31.382,20.921l35.31,23.543
		c6.175,4.113,8.029,12.353,4.211,18.714l-16.772,27.886c-4.443,7.537-11.615,13.078-20.03,15.475
		c-27.807,7.627-89.159,9.172-187.445-89.159S-4.47,260.07,3.157,232.263c2.397-8.415,7.937-15.586,15.475-20.03l27.886-16.772
		c6.362-3.818,14.601-1.964,18.714,4.211L89.42,235.988z"/>
	<circle style="fill:#894B9D;" cx="282.48" cy="229.518" r="44.138"/>
	<path style="fill:#CC66A1;" d="M282.48,238.345c-2.337-0.033-4.576-0.947-6.268-2.56c-0.353-0.441-0.706-0.883-1.059-1.412
		c-0.35-0.45-0.619-0.958-0.794-1.501c-0.269-0.526-0.448-1.093-0.53-1.677c-0.102-0.554-0.161-1.114-0.177-1.677
		c0.014-1.154,0.254-2.293,0.706-3.354c0.448-1.069,1.075-2.055,1.854-2.913c2.538-2.505,6.335-3.236,9.622-1.854
		c1.068,0.45,2.053,1.077,2.913,1.854c0.779,0.859,1.406,1.844,1.854,2.913c0.452,1.061,0.692,2.201,0.706,3.354
		c-0.014,0.563-0.076,1.124-0.185,1.677c-0.237,1.132-0.683,2.21-1.315,3.178c-0.353,0.53-0.706,0.971-1.059,1.412
		c-0.86,0.777-1.845,1.404-2.913,1.854C284.773,238.091,283.633,238.331,282.48,238.345z"/>
	<g>
		<path style="fill:#B49ACA;" d="M282.48,35.311c-78.03,0.132-148.444,46.836-178.918,118.669c-0.913,2.157-0.931,4.589-0.05,6.76
			c0.881,2.171,2.588,3.902,4.746,4.813c1.085,0.465,2.253,0.705,3.434,0.706c3.546,0.001,6.747-2.12,8.13-5.385
			C147.42,95.478,211.498,52.967,282.48,52.966c4.875,0,8.828-3.952,8.828-8.828S287.355,35.311,282.48,35.311z"/>
		<path style="fill:#B49ACA;" d="M467.859,220.69c-4.875,0-8.828,3.952-8.828,8.828c-0.124,70.944-42.593,134.962-107.908,162.657
			c-2.905,1.23-4.932,3.916-5.32,7.047c-0.387,3.13,0.925,6.23,3.443,8.13c2.518,1.901,5.858,2.314,8.762,1.084
			c71.926-30.363,118.678-100.845,118.678-178.918C476.687,224.642,472.734,220.69,467.859,220.69z"/>
		<circle style="fill:#B49ACA;" cx="321.056" cy="48.923" r="8.828"/>
		<circle style="fill:#B49ACA;" cx="317.79" cy="414.897" r="8.828"/>
	</g>
</g>
<g>
</g>
<g>
</g>
<g>
</g>
<g>
</g>
<g>
</g>
<g>
</g>
<g>
</g>
<g>
</g>
<g>
</g>
<g>
</g>
<g>
</g>
<g>
</g>
<g>
</g>
<g>
</g>
<g>
</g>
</svg>
