<svg height="512pt" viewBox="0 0 512.00001 512" width="512pt" xmlns="http://www.w3.org/2000/svg"><path d="m459.035156 300.136719h35.308594v150.070312h-35.308594zm0 0" fill="#bdc3c7"/><path d="m441.378906 256v26.484375l17.65625 61.792969h35.308594l17.65625-61.792969v-26.484375zm0 0" fill="#95a5a5"/><path d="m406.070312 52.964844v264.828125c0 19.5-15.808593 35.308593-35.3125 35.308593l-344.273437-1.144531c-15.597656-4.003906-26.4960938-18.0625-26.484375-34.164062v-264.828125zm0 0" fill="#b0d3f0"/><path d="m406.070312 35.308594v35.3125h-406.070312v-35.3125c0-19.5 15.808594-35.308594 35.308594-35.308594h335.449218c19.503907 0 35.3125 15.808594 35.3125 35.308594zm0 0" fill="#894b9d"/><path d="m52.964844 35.308594c0 4.878906-3.953125 8.828125-8.828125 8.828125s-8.828125-3.949219-8.828125-8.828125c0-4.875 3.953125-8.824219 8.828125-8.824219s8.828125 3.949219 8.828125 8.824219zm0 0" fill="#e64c3c"/><path d="m88.277344 35.308594c0 4.878906-3.953125 8.828125-8.828125 8.828125s-8.828125-3.949219-8.828125-8.828125c0-4.875 3.953125-8.824219 8.828125-8.824219s8.828125 3.949219 8.828125 8.824219zm0 0" fill="#f0c419"/><path d="m123.585938 35.308594c0 4.878906-3.953126 8.828125-8.828126 8.828125s-8.828124-3.949219-8.828124-8.828125c0-4.875 3.953124-8.824219 8.828124-8.824219s8.828126 3.949219 8.828126 8.824219zm0 0" fill="#14a085"/><path d="m370.757812 35.308594c0 4.878906-3.953124 8.828125-8.828124 8.828125s-8.828126-3.949219-8.828126-8.828125c0-4.875 3.953126-8.824219 8.828126-8.824219s8.828124 3.949219 8.828124 8.824219zm0 0" fill="#955ba5"/><path d="m353.101562 211.863281h8.828126c4.875 0 8.828124-3.953125 8.828124-8.828125v-88.277344c0-4.875-3.953124-8.828124-8.828124-8.828124h-317.792969c-4.875 0-8.828125 3.953124-8.828125 8.828124v88.277344c0 4.875 3.953125 8.828125 8.828125 8.828125zm0 0" fill="#3b97d3"/><path d="m350.648438 379.585938h2.453124c5.648438.007812 10.949219 2.714843 14.265626 7.28125 3.320312 4.570312 4.25 10.449218 2.507812 15.820312-24.367188 74.160156-98.996094 119.632812-176.074219 107.292969-77.078125-12.339844-133.777343-78.839844-133.777343-156.898438 0-78.058593 56.699218-144.558593 133.777343-156.898437s151.707031 33.132812 176.074219 107.292968c1.761719 5.375.835938 11.269532-2.484375 15.847657-3.316406 4.582031-8.628906 7.292969-14.289063 7.296875h-2.425781c-13.289062-.332032-26.226562-4.332032-37.382812-11.554688-18.597657-10.945312-42.382813-6.84375-56.234375 9.703125-13.851563 16.542969-13.710938 40.679688.332031 57.058594 14.042969 16.382813 37.875 20.210937 56.34375 9.046875 10.996094-7.164062 23.792969-11.078125 36.914063-11.289062zm0 0" fill="#cb8252"/><path d="m142.980469 353.101562c0 12.191407-9.878907 22.070313-22.070313 22.070313-12.1875 0-22.066406-9.878906-22.066406-22.070313 0-12.1875 9.878906-22.066406 22.066406-22.066406 12.191406 0 22.070313 9.878906 22.070313 22.066406zm0 0" fill="#24ae5f"/><path d="m178.289062 428.136719c0 12.191406-9.878906 22.070312-22.066406 22.070312s-22.070312-9.878906-22.070312-22.070312c0-12.1875 9.882812-22.066407 22.070312-22.066407s22.066406 9.878907 22.066406 22.066407zm0 0" fill="#4482c3"/><path d="m257.738281 454.621094c0 12.1875-9.878906 22.070312-22.066406 22.070312-12.191406 0-22.070313-9.882812-22.070313-22.070312s9.878907-22.070313 22.070313-22.070313c12.1875 0 22.066406 9.882813 22.066406 22.070313zm0 0" fill="#804169"/><path d="m178.289062 278.070312c0 12.1875-9.878906 22.066407-22.066406 22.066407s-22.070312-9.878907-22.070312-22.066407c0-12.191406 9.882812-22.070312 22.070312-22.070312s22.066406 9.878906 22.066406 22.070312zm0 0" fill="#e64c3c"/><path d="m257.738281 251.585938c0 12.1875-9.878906 22.070312-22.066406 22.070312-12.191406 0-22.070313-9.882812-22.070313-22.070312s9.878907-22.070313 22.070313-22.070313c12.1875 0 22.066406 9.882813 22.066406 22.070313zm0 0" fill="#f0c419"/><path d="m512 282.484375h-70.621094v-205.914063c.101563-18.589843 5.019532-36.839843 14.273438-52.964843l10.214844-18.160157c2.546874-3.421874 6.558593-5.4374995 10.824218-5.4374995 4.261719 0 8.277344 2.0156255 10.820313 5.4374995l10.214843 18.160157c9.253907 16.125 14.171876 34.375 14.273438 52.964843zm0 0" fill="#cb8252"/><path d="m471.527344 406.070312s-35.566406 0-29.433594 42.371094c6.136719 42.371094 68.679688 63.558594 68.679688 63.558594s-23.96875-34.914062-9.808594-52.964844c11.328125-14.441406 20.1875-28.894531-6.398438-52.964844" fill="#f0c419"/><g fill="#805333"><path d="m476.691406 123.585938c-4.878906 0-8.828125 3.953124-8.828125 8.828124v97.101563c0 4.878906 3.949219 8.828125 8.828125 8.828125 4.875 0 8.824219-3.949219 8.824219-8.828125v-97.101563c0-4.875-3.949219-8.828124-8.824219-8.828124zm0 0"/><path d="m476.691406 79.449219c-4.878906 0-8.828125 3.953125-8.828125 8.828125v8.824218c0 4.878907 3.949219 8.828126 8.828125 8.828126 4.875 0 8.824219-3.949219 8.824219-8.828126v-8.824218c0-4.875-3.949219-8.828125-8.824219-8.828125zm0 0"/></g></svg>